<?xml version="1.0" encoding="utf-8"?>
<!-- Generator: Adobe Illustrator 16.0.0, SVG Export Plug-In . SVG Version: 6.00 Build 0)  -->
<!DOCTYPE svg PUBLIC "-//W3C//DTD SVG 1.1//EN" "http://www.w3.org/Graphics/SVG/1.1/DTD/svg11.dtd">
<svg version="1.1" id="Layer_1" xmlns="http://www.w3.org/2000/svg" xmlns:xlink="http://www.w3.org/1999/xlink" x="0px" y="0px"
	 width="500px" height="500px" viewBox="0 0 500 500" enable-background="new 0 0 500 500" xml:space="preserve">
<g>
	<path fill="#1B9DD9" d="M249.987,0.01C112.16,0.01,0,112.156,0,250.01c0,137.833,112.16,249.98,249.987,249.98
		C387.84,499.99,500,387.843,500,250.01C500,112.156,387.84,0.01,249.987,0.01"/>
	<path fill="#FFFFFF" d="M358.528,339.883c0,4.275-3.503,7.753-7.753,7.753H294.74c-4.263,0-6.285-3.168-4.521-7.058l7.071-15.506
		c1.764-3.863,6.671-7.031,10.946-7.031h42.538c4.263,0,7.753,3.477,7.753,7.753V339.883z M157.531,304.775
		c-8.731,0-15.866-6.773-15.866-15.223V185.449c0-8.423,7.135-15.249,15.866-15.249h106.442h78.366
		c8.758,0,15.866,6.826,15.866,15.249v104.104c0,8.449-7.108,15.223-15.866,15.223h-78.366H157.531z M205.312,347.636h-56.022
		c-4.25,0-7.753-3.478-7.753-7.753v-14.089c0-4.276,3.478-7.753,7.74-7.753h42.551c4.263,0,9.183,3.168,10.96,7.031l7.045,15.506
		C211.622,344.468,209.574,347.636,205.312,347.636 M141.355,136.961c0-4.275,3.504-7.753,7.754-7.753h61.404h15.506h45.643h15.506
		h63.247c4.275,0,7.739,3.478,7.739,7.753v8.538c0,4.276-3.464,7.767-7.739,7.767h-63.247h-15.506H226.02h-15.506h-61.404
		c-4.25,0-7.754-3.49-7.754-7.767V136.961z M357.923,108.164h-45.19H187.127h-45.204c-13.433,0-24.315,10.573-24.315,23.581v209.014
		c0,12.956,10.883,23.542,24.315,23.542h8.474v21.688c0,3.22,2.627,5.847,5.848,5.847h19.253c3.22,0,5.847-2.627,5.847-5.847
		v-21.688h137.209v21.688c0,3.22,2.627,5.847,5.848,5.847h19.253c3.22,0,5.847-2.627,5.847-5.847v-21.688h8.423
		c13.472,0,24.366-10.586,24.366-23.542V131.745C382.289,118.737,371.395,108.164,357.923,108.164"/>
</g>
</svg>
